<svg width="56" height="57" viewBox="0 0 56 57" fill="none" xmlns="http://www.w3.org/2000/svg">
<g id="Google__G__Logo 1">
<path id="Vector" d="M52.64 29.4784C52.64 27.6584 52.4767 25.9084 52.1733 24.2284H28V34.1684H41.8133C41.2067 37.3651 39.3867 40.0717 36.6567 41.8917V48.3551H44.9867C49.84 43.8751 52.64 37.2951 52.64 29.4784Z" fill="#4285F4"/>
<path id="Vector_2" d="M27.9993 54.5616C34.9293 54.5616 40.7393 52.2749 44.9859 48.3549L36.6559 41.8916C34.3693 43.4316 31.4526 44.3649 27.9993 44.3649C21.3259 44.3649 15.6559 39.8616 13.6259 33.7949H5.08594V40.4216C9.30927 48.7983 17.9659 54.5616 27.9993 54.5616Z" fill="#34A853"/>
<path id="Vector_3" d="M13.6254 33.7716C13.112 32.2316 12.8087 30.5983 12.8087 28.8949C12.8087 27.1916 13.112 25.5583 13.6254 24.0183V17.3916H5.08536C3.33536 20.8449 2.33203 24.7416 2.33203 28.8949C2.33203 33.0483 3.33536 36.9449 5.08536 40.3983L11.7354 35.2183L13.6254 33.7716Z" fill="#FBBC05"/>
<path id="Vector_4" d="M27.9993 13.4484C31.7793 13.4484 35.1393 14.7551 37.8226 17.2751L45.1726 9.92506C40.7159 5.77173 34.9293 3.22839 27.9993 3.22839C17.9659 3.22839 9.30927 8.99173 5.08594 17.3917L13.6259 24.0184C15.6559 17.9517 21.3259 13.4484 27.9993 13.4484Z" fill="#EA4335"/>
</g>
</svg>
