<svg width="20" height="20" viewBox="0 0 20 20" fill="none" xmlns="http://www.w3.org/2000/svg">
<g id="Frame">
<path id="Vector" d="M3.59837 5.265C3.25014 5.61322 2.97391 6.02662 2.78546 6.48159C2.597 6.93657 2.5 7.42421 2.5 7.91667C2.5 8.40913 2.597 8.89677 2.78546 9.35174C2.97391 9.80671 3.25014 10.2201 3.59837 10.5683L10 16.97L16.4017 10.5683C17.105 9.86507 17.5001 8.91123 17.5001 7.91667C17.5001 6.9221 17.105 5.96827 16.4017 5.265C15.6984 4.56173 14.7446 4.16664 13.75 4.16664C12.7555 4.16664 11.8016 4.56173 11.0984 5.265L10 6.36333L8.9017 5.265C8.55348 4.91677 8.14008 4.64055 7.68511 4.45209C7.23013 4.26363 6.74249 4.16663 6.25003 4.16663C5.75757 4.16663 5.26993 4.26363 4.81496 4.45209C4.35999 4.64055 3.94659 4.91677 3.59837 5.265V5.265Z" stroke="#449A2B" stroke-width="2" stroke-linecap="round" stroke-linejoin="round"/>
</g>
</svg>
