<svg width="20" height="20" viewBox="0 0 20 20" fill="none" xmlns="http://www.w3.org/2000/svg">
<g id="Icon / Bed">
<path id="Vector" d="M17.4993 8.98317V6.6665C17.4993 5.2915 16.3743 4.1665 14.9993 4.1665H11.666C11.0243 4.1665 10.441 4.4165 9.99935 4.8165C9.55768 4.4165 8.97435 4.1665 8.33268 4.1665H4.99935C3.62435 4.1665 2.49935 5.2915 2.49935 6.6665V8.98317C1.99102 9.4415 1.66602 10.0998 1.66602 10.8332V15.8332H3.33268V14.1665H16.666V15.8332H18.3327V10.8332C18.3327 10.0998 18.0077 9.4415 17.4993 8.98317ZM11.666 5.83317H14.9993C15.4577 5.83317 15.8327 6.20817 15.8327 6.6665V8.33317H10.8327V6.6665C10.8327 6.20817 11.2077 5.83317 11.666 5.83317ZM4.16602 6.6665C4.16602 6.20817 4.54102 5.83317 4.99935 5.83317H8.33268C8.79102 5.83317 9.16602 6.20817 9.16602 6.6665V8.33317H4.16602V6.6665ZM3.33268 12.4998V10.8332C3.33268 10.3748 3.70768 9.99984 4.16602 9.99984H15.8327C16.291 9.99984 16.666 10.3748 16.666 10.8332V12.4998H3.33268Z" fill="#50B533"/>
</g>
</svg>
